# Blender v2.76 (sub 0) OBJ File: ''
# www.blender.org
o room
v -131.665710 -3.466829 -131.665802
v -131.665771 -3.466872 131.665726
v 131.665756 -3.466872 131.665756
v 131.665665 3.466829 131.665833
v -131.665802 3.466829 131.665710
v -131.665741 3.466872 -131.665756
v 131.665817 3.466872 -131.665680
v 131.665756 -3.466829 -131.665741
vt -16.340206 17.341993
vt -16.340206 -16.339905
vt 17.341692 -16.339891
vt 17.341692 17.341993
vn -0.000000 1.000000 0.000000
vn 0.000000 -1.000000 -0.000000
s 1
f 1/1/1 2/2/1 3/3/1
f 4/3/2 5/2/2 6/1/2
f 8/4/1 1/1/1 3/3/1
f 7/4/2 4/3/2 6/1/2
