# Blender v2.76 (sub 0) OBJ File: ''
# www.blender.org
o Cube
v 1.000000 0.000000 -1.000000
v 1.000000 0.000000 1.000000
v -1.000000 0.000000 1.000000
v -1.000000 0.000000 -1.000000
v 1.000000 0.117647 -0.999999
v 0.999999 0.117647 1.000001
v -1.000000 0.117647 1.000000
v -1.000000 0.117647 -1.000000
v 1.000000 0.117647 0.000001
v 0.000000 0.117647 -1.000000
v -0.000001 0.117647 1.000000
v -1.000000 0.117647 -0.000000
v -0.000000 0.117647 0.000000
v 1.000000 0.117647 0.500001
v -0.500000 0.117647 -1.000000
v -0.500000 0.117647 1.000000
v -1.000000 0.117647 -0.500000
v 1.000000 0.117647 -0.499999
v 0.500000 0.117647 -1.000000
v 0.499999 0.117647 1.000000
v -1.000000 0.117647 0.500000
v -0.000000 0.117647 0.500000
v 0.000000 0.117647 -0.500000
v 0.500000 0.117647 0.000000
v -0.500000 0.117647 0.000000
v -0.500000 0.117647 -0.500000
v 0.500000 0.117647 -0.500000
v 0.500000 0.117647 0.500000
v -0.500000 0.117647 0.500000
v 1.000000 0.117647 0.750001
v -0.750000 0.117647 -1.000000
v -0.750000 0.117647 1.000000
v -1.000000 0.117647 -0.750000
v 1.000000 0.117647 -0.249999
v 0.250000 0.117647 -1.000000
v 0.249999 0.117647 1.000000
v -1.000000 0.117647 0.250000
v -0.000000 0.117647 0.750000
v -0.000000 0.117647 -0.250000
v 0.750000 0.117647 0.000000
v -0.250000 0.117647 0.000000
v 1.000000 0.117647 0.250001
v -0.250000 0.117647 -1.000000
v -0.250001 0.117647 1.000000
v -1.000000 0.117647 -0.250000
v 1.000000 0.117647 -0.749999
v 0.750000 0.117647 -1.000000
v 0.749999 0.117647 1.000000
v -1.000000 0.117647 0.750000
v -0.000000 0.117647 0.250000
v 0.000000 0.117647 -0.750000
v 0.250000 0.117647 0.000000
v -0.750000 0.117647 -0.000000
v -0.500000 0.117647 -0.250000
v -0.500000 0.117647 -0.750000
v -0.250000 0.117647 -0.500000
v -0.750000 0.117647 -0.500000
v 0.500000 0.117647 -0.250000
v 0.500000 0.117647 -0.750000
v 0.750000 0.117647 -0.500000
v 0.250000 0.117647 -0.500000
v 0.500000 0.117647 0.750000
v 0.500000 0.117647 0.250000
v 0.750000 0.117647 0.500000
v 0.250000 0.117647 0.500000
v -0.500000 0.117647 0.750000
v -0.500000 0.117647 0.250000
v -0.250000 0.117647 0.500000
v -0.750000 0.117647 0.500000
v -0.750000 0.117647 0.250000
v -0.250000 0.117647 0.250000
v -0.250000 0.117647 0.750000
v 0.250000 0.117647 0.250000
v 0.750000 0.117647 0.250000
v 0.750000 0.117647 0.750000
v 0.250000 0.117647 -0.750000
v 0.750000 0.117647 -0.750000
v 0.750000 0.117647 -0.250000
v -0.750000 0.117647 -0.750000
v -0.250000 0.117647 -0.750000
v -0.250000 0.117647 -0.250000
v -0.750000 0.117647 -0.250000
v 0.250000 0.117647 -0.250000
v 0.250000 0.117647 0.750000
v -0.750000 0.117647 0.750000
v 1.000000 1.844201 0.750001
v 0.999999 1.844201 1.000001
v -0.750000 1.844201 -1.000000
v -1.000000 1.844201 -1.000000
v -0.750000 1.844201 1.000000
v -1.000000 1.844201 1.000000
v -1.000000 1.844201 -0.750000
v 0.249999 1.844201 1.000000
v -0.000001 1.844201 1.000000
v -1.000000 1.844201 0.250000
v -1.000000 1.844201 -0.000000
v -0.000000 1.844201 0.750000
v -0.250001 1.844201 1.000000
v -0.500000 1.844201 1.000000
v -1.000000 1.844201 -0.250000
v -1.000000 1.844201 -0.500000
v 0.749999 1.844201 1.000000
v 0.499999 1.844201 1.000000
v -1.000000 1.844201 0.750000
v -1.000000 1.844201 0.500000
v 0.500000 1.844201 0.750000
v -0.500000 1.844201 0.750000
v -0.750000 1.844201 -0.000000
v -0.750000 1.844201 -0.500000
v -0.750000 1.844201 0.500000
v -0.750000 1.844201 0.250000
v -0.250000 1.844201 0.750000
v 0.750000 1.844201 0.750000
v -0.750000 1.844201 -0.750000
v -0.750000 1.844201 -0.250000
v 0.250000 1.844201 0.750000
v -0.750000 1.844201 0.750000
v -0.750000 0.117647 -0.875000
v -0.750000 1.844201 -0.875000
v -0.750000 1.640355 -0.750000
v -0.750000 1.640355 -1.000000
v -0.750000 1.640355 -0.875000
v 1.000000 1.640316 -0.999999
v 1.000000 1.640316 -0.749999
v 0.750000 1.640316 -1.000000
v 0.750000 1.640316 -0.750000
v 1.000000 1.844201 -0.875000
v 1.000000 1.844201 -0.750000
v 1.000000 1.640355 -0.750000
v 1.000000 1.640355 -1.000000
v 1.000000 1.844201 -1.000000
v 1.000000 1.640355 -0.875000
vt 0.336791 0.346460
vt 0.336791 0.692920
vt 0.000000 0.692920
vt 0.627535 0.779535
vt 0.336791 0.779535
vt 0.336791 0.736228
vt 0.627535 0.129923
vt 0.627535 0.086615
vt 0.647346 0.000000
vt 0.938090 0.476383
vt 0.938090 0.433075
vt 0.957901 0.346460
vt 0.627535 0.476383
vt 0.627535 0.433075
vt 0.647346 0.346460
vt 0.957901 0.000000
vt 0.938090 0.129923
vt 0.938090 0.086615
vt 0.627535 0.736228
vt 0.918279 0.736228
vt 0.918279 0.779535
vt 0.168395 0.822843
vt 0.168395 0.866150
vt 0.126297 0.866150
vt 0.210494 0.822843
vt 0.252593 0.822843
vt 0.252593 0.866150
vt 0.252593 0.736228
vt 0.252593 0.779535
vt 0.210494 0.779535
vt 0.918279 0.822843
vt 0.084198 0.822843
vt 0.084198 0.866150
vt 0.042099 0.866150
vt 0.084198 0.736228
vt 0.084198 0.779535
vt 0.042099 0.779535
vt 0.168395 0.736228
vt 0.168395 0.779535
vt 0.126297 0.779535
vt 0.627535 0.909458
vt 0.918279 0.909458
vt 0.918279 0.952765
vt 0.084198 0.909458
vt 0.084198 0.952765
vt 0.042099 0.952765
vt 0.168395 0.909458
vt 0.168395 0.952765
vt 0.126297 0.952765
vt 0.371118 0.952765
vt 0.336791 0.952765
vt 0.336791 0.909458
vt 0.252593 0.909458
vt 0.252593 0.952765
vt 0.210494 0.952765
vt 0.336791 0.866150
vt 0.294692 0.909458
vt 0.294692 0.952765
vt 0.294692 0.866150
vt 0.627535 0.952765
vt 0.918279 0.996073
vt 0.210494 0.909458
vt 0.210494 0.866150
vt 0.627535 0.692920
vt 0.918279 0.692920
vt 0.210494 0.996073
vt 0.252593 0.996073
vt 0.126297 0.909458
vt 0.042099 0.909458
vt 0.000000 0.952765
vt 0.000000 0.909458
vt 0.627535 0.866150
vt 0.336791 0.822843
vt 0.042099 0.996073
vt 0.000000 0.996073
vt 0.084198 0.996073
vt 0.126297 0.736228
vt 0.126297 0.692920
vt 0.168395 0.692920
vt 0.042099 0.736228
vt 0.000000 0.779535
vt 0.627535 0.346460
vt 0.371124 0.346460
vt 0.371124 0.303153
vt 0.084198 0.692920
vt 0.042099 0.822843
vt 0.000000 0.866150
vt 0.000000 0.822843
vt 0.294692 0.736228
vt 0.294692 0.779535
vt 0.294692 0.692920
vt 0.294692 0.714574
vt 0.252593 0.692920
vt 0.627535 0.562998
vt 0.336791 0.562998
vt 0.336791 0.519690
vt 0.210494 0.736228
vt 0.210494 0.692920
vt 0.294692 0.822843
vt 0.126297 0.822843
vt 0.627535 0.606305
vt 0.336791 0.606305
vt 0.126297 0.996073
vt 0.168395 0.996073
vt 0.938090 0.562998
vt 0.647346 0.562998
vt 0.647346 0.519690
vt 0.294692 0.996073
vt 0.938090 0.606305
vt 0.647346 0.606305
vt 0.294692 0.303153
vt 0.336791 0.303153
vt 0.126297 0.303153
vt 0.168395 0.303153
vt 0.168395 0.346460
vt 0.336791 0.129923
vt 0.336791 0.173230
vt 0.294692 0.173230
vt 0.294692 0.043308
vt 0.336791 0.043308
vt 0.336791 0.086615
vt 0.084198 0.303153
vt 0.084198 0.346460
vt 0.042099 0.346460
vt 0.252593 0.303153
vt 0.252593 0.346460
vt 0.210494 0.346460
vt 0.294692 0.216538
vt 0.336791 0.216538
vt 0.336791 0.259845
vt 0.210494 0.303153
vt 0.042099 0.303153
vt 0.000000 0.346460
vt 0.294692 0.021654
vt 0.294692 0.129923
vt 0.126297 0.346460
vt 0.294692 0.346460
vt 0.294692 0.259845
vt 0.627535 0.043308
vt 0.336791 0.000000
vt 0.938090 0.519690
vt 0.647346 0.476383
vt 0.627535 0.822843
vt 0.647346 0.433075
vt 0.647346 0.303153
vt 0.681673 0.303153
vt 0.627535 0.519690
vt 0.336791 0.476383
vt 0.336791 0.433075
vt 0.647346 0.389768
vt 0.938090 0.389768
vt 0.336791 0.389768
vt 0.627535 0.389768
vt 0.918279 0.866150
vt 0.938090 0.692920
vt 0.647346 0.692920
vt 0.647346 0.649613
vt 0.938090 0.649613
vt 0.336791 0.649613
vt 0.627535 0.649613
vt 0.627535 0.974419
vt 0.371118 0.974419
vt 0.918279 0.956692
vt 0.960378 0.956692
vt 0.960378 1.000000
vt 0.957901 0.263772
vt 1.000000 0.000000
vt 0.938090 0.043308
vt 0.681679 0.043308
vt 0.681679 0.000000
vt 0.960378 0.692920
vt 0.992228 0.588578
vt 0.957901 0.588578
vt 0.957901 0.566925
vt 0.000000 0.043308
vt 0.000000 0.021654
vt 0.000000 0.000000
vt 0.992228 0.263772
vt 0.315741 0.996073
vt 0.315742 0.692920
vt 0.627535 0.173230
vt 0.627535 0.303153
vt 0.627535 0.259845
vt 0.627535 0.216538
vt 0.627535 0.000000
vt 0.957901 0.692920
vt 0.938090 0.346460
vt 0.938090 0.000000
vt 0.938090 0.173230
vt 0.938090 0.303153
vt 0.938090 0.259845
vt 0.938090 0.216538
vt 0.627535 0.996073
vt 0.000000 0.736228
vt 0.042099 0.692920
vt 0.294692 0.086615
vt 0.000000 0.303153
vt 0.294692 0.000000
vt 0.371118 0.996073
vt 0.918279 1.000000
vt 1.000000 0.263772
vt 0.992228 0.610232
vt 0.957901 0.610232
vt 0.992228 0.566925
vt 0.336791 0.996073
vn 0.000000 -1.000000 0.000000
vn 1.000000 0.000000 0.000000
vn 0.000000 0.000000 1.000000
vn -1.000000 0.000000 0.000000
vn 0.000000 0.000000 -1.000000
vn 0.000000 1.000000 0.000000
s off
f 2/1/1 3/2/1 4/3/1
f 70/4/2 111/5/2 110/6/2
f 42/7/2 14/8/2 2/9/2
f 44/10/3 16/11/3 3/12/3
f 45/13/4 17/14/4 4/15/4
f 1/16/5 35/17/5 19/18/5
f 66/19/5 107/20/5 112/21/5
f 39/22/6 13/23/6 52/24/6
f 81/25/6 54/26/6 25/27/6
f 55/28/6 26/29/6 56/30/6
f 72/4/5 112/21/5 97/31/5
f 58/32/6 24/33/6 40/34/6
f 59/35/6 27/36/6 60/37/6
f 51/38/6 23/39/6 61/40/6
f 62/41/5 106/42/5 113/43/5
f 63/44/6 28/45/6 64/46/6
f 50/47/6 22/48/6 65/49/6
f 120/50/2 114/51/2 109/52/2
f 67/53/6 29/54/6 68/55/6
f 57/41/2 109/52/2 115/56/2
f 67/53/6 70/57/6 69/58/6
f 53/59/6 70/57/6 67/53/6
f 75/60/5 113/43/5 86/61/5
f 71/62/6 68/55/6 22/48/6
f 41/63/6 71/62/6 50/47/6
f 25/27/6 67/53/6 71/62/6
f 85/64/5 117/65/5 107/20/5
f 22/48/6 68/55/6 72/66/6
f 29/54/6 66/67/6 72/66/6
f 73/68/6 65/49/6 28/45/6
f 24/33/6 52/24/6 73/68/6
f 13/23/6 50/47/6 73/68/6
f 74/69/6 64/46/6 14/70/6
f 40/34/6 74/69/6 42/71/6
f 24/33/6 63/44/6 74/69/6
f 82/72/2 115/56/2 108/73/2
f 64/46/6 75/74/6 30/75/6
f 28/45/6 62/76/6 75/74/6
f 76/77/6 61/40/6 27/36/6
f 35/78/6 76/77/6 59/35/6
f 10/79/6 51/38/6 76/77/6
f 77/80/6 60/37/6 18/81/6
f 5/82/2 123/83/2 124/84/2
f 19/85/6 59/35/6 77/80/6
f 78/86/6 40/34/6 9/87/6
f 60/37/6 78/86/6 34/88/6
f 27/36/6 58/32/6 78/86/6
f 55/28/6 79/89/6 57/90/6
f 31/91/6 118/92/6 15/93/6
f 37/94/4 95/95/4 96/96/4
f 51/38/6 80/97/6 56/30/6
f 43/98/6 80/97/6 51/38/6
f 15/93/6 55/28/6 80/97/6
f 81/25/6 41/63/6 13/23/6
f 56/30/6 81/25/6 39/22/6
f 26/29/6 54/26/6 81/25/6
f 54/26/6 82/99/6 53/59/6
f 57/90/6 82/99/6 54/26/6
f 69/19/2 110/6/2 117/2/2
f 83/100/6 52/24/6 24/33/6
f 61/40/6 83/100/6 58/32/6
f 23/39/6 39/22/6 83/100/6
f 21/101/4 105/102/4 95/95/4
f 28/45/6 65/49/6 84/103/6
f 65/49/6 22/48/6 38/104/6
f 36/105/3 93/106/3 94/107/3
f 69/58/6 85/108/6 66/67/6
f 20/109/3 103/110/3 93/106/3
f 117/111/6 104/112/6 91/1/6
f 116/113/6 97/114/6 94/115/6
f 100/116/6 96/117/6 108/118/6
f 114/119/6 92/120/6 101/121/6
f 106/122/6 103/123/6 102/124/6
f 107/125/6 99/126/6 98/127/6
f 111/128/6 95/129/6 105/130/6
f 96/117/6 95/129/6 111/128/6
f 97/114/6 112/131/6 98/127/6
f 113/132/6 102/124/6 87/133/6
f 92/120/6 114/119/6 119/134/6
f 101/121/6 100/116/6 115/135/6
f 116/113/6 93/136/6 103/123/6
f 107/125/6 117/111/6 90/137/6
f 110/138/6 105/130/6 104/112/6
f 30/139/2 86/120/2 87/140/2
f 11/141/3 94/107/3 98/142/3
f 53/143/2 108/73/2 111/5/2
f 44/10/3 98/142/3 99/144/3
f 89/15/5 88/145/5 121/146/5
f 12/147/4 96/96/4 100/148/4
f 45/13/4 100/148/4 101/149/4
f 16/11/3 99/144/3 90/150/3
f 32/151/3 90/150/3 91/15/3
f 17/14/4 101/149/4 92/152/4
f 33/153/4 92/152/4 89/1/4
f 84/72/5 116/154/5 106/42/5
f 6/155/3 87/156/3 102/157/3
f 48/158/3 102/157/3 103/110/3
f 38/143/5 97/31/5 116/154/5
f 7/64/4 91/2/4 104/159/4
f 49/160/4 104/159/4 105/102/4
f 118/161/2 122/162/2 120/50/2
f 125/163/6 126/164/6 124/165/6
f 77/166/4 126/16/4 125/167/4
f 47/168/5 125/169/5 123/170/5
f 46/171/3 124/164/3 126/163/3
f 132/172/2 127/173/2 128/174/2
f 114/119/6 128/175/6 127/176/6
f 119/134/6 127/176/6 131/177/6
f 88/145/5 131/9/5 130/170/5
f 120/174/3 129/166/3 128/178/3
f 122/179/1 132/180/1 129/2/1
f 1/133/1 2/1/1 4/3/1
f 69/19/2 70/4/2 110/6/2
f 2/9/2 1/15/2 9/181/2
f 5/82/2 46/182/2 1/15/2
f 18/183/2 34/184/2 1/15/2
f 9/181/2 42/7/2 2/9/2
f 14/8/2 30/139/2 2/9/2
f 1/15/2 46/182/2 18/183/2
f 30/139/2 6/185/2 2/9/2
f 34/184/2 9/181/2 1/15/2
f 3/12/3 2/186/3 11/141/3
f 6/155/3 48/158/3 2/186/3
f 20/109/3 36/105/3 2/186/3
f 11/141/3 44/10/3 3/12/3
f 16/11/3 32/151/3 3/12/3
f 2/186/3 48/158/3 20/109/3
f 32/151/3 7/187/3 3/12/3
f 36/105/3 11/141/3 2/186/3
f 4/15/4 12/147/4 45/13/4
f 7/64/4 49/160/4 3/156/4
f 21/101/4 37/94/4 3/156/4
f 17/14/4 33/153/4 4/15/4
f 37/94/4 12/147/4 3/156/4
f 33/153/4 8/82/4 4/15/4
f 12/147/4 4/15/4 3/156/4
f 3/156/4 49/160/4 21/101/4
f 47/168/5 5/188/5 1/16/5
f 1/16/5 4/12/5 10/189/5
f 8/187/5 31/190/5 4/12/5
f 15/191/5 43/192/5 4/12/5
f 10/189/5 35/17/5 1/16/5
f 19/18/5 47/168/5 1/16/5
f 4/12/5 31/190/5 15/191/5
f 43/192/5 10/189/5 4/12/5
f 72/4/5 66/19/5 112/21/5
f 83/100/6 39/22/6 52/24/6
f 41/63/6 81/25/6 25/27/6
f 80/97/6 55/28/6 56/30/6
f 38/143/5 72/4/5 97/31/5
f 78/86/6 58/32/6 40/34/6
f 77/80/6 59/35/6 60/37/6
f 76/77/6 51/38/6 61/40/6
f 75/60/5 62/41/5 113/43/5
f 74/69/6 63/44/6 64/46/6
f 73/68/6 50/47/6 65/49/6
f 109/52/2 57/41/2 120/50/2
f 79/60/2 120/50/2 57/41/2
f 71/62/6 67/53/6 68/55/6
f 82/72/2 57/41/2 115/56/2
f 29/54/6 67/53/6 69/58/6
f 25/27/6 53/59/6 67/53/6
f 30/193/5 75/60/5 86/61/5
f 50/47/6 71/62/6 22/48/6
f 13/23/6 41/63/6 50/47/6
f 41/63/6 25/27/6 71/62/6
f 66/19/5 85/64/5 107/20/5
f 38/104/6 22/48/6 72/66/6
f 68/55/6 29/54/6 72/66/6
f 63/44/6 73/68/6 28/45/6
f 63/44/6 24/33/6 73/68/6
f 52/24/6 13/23/6 73/68/6
f 42/71/6 74/69/6 14/70/6
f 9/87/6 40/34/6 42/71/6
f 40/34/6 24/33/6 74/69/6
f 53/143/2 82/72/2 108/73/2
f 14/70/6 64/46/6 30/75/6
f 64/46/6 28/45/6 75/74/6
f 59/35/6 76/77/6 27/36/6
f 19/85/6 35/78/6 59/35/6
f 35/78/6 10/79/6 76/77/6
f 46/194/6 77/80/6 18/81/6
f 46/182/2 5/82/2 124/84/2
f 47/195/6 19/85/6 77/80/6
f 34/88/6 78/86/6 9/87/6
f 18/81/6 60/37/6 34/88/6
f 60/37/6 27/36/6 78/86/6
f 26/29/6 55/28/6 57/90/6
f 55/28/6 15/93/6 118/92/6
f 118/92/6 79/89/6 55/28/6
f 12/147/4 37/94/4 96/96/4
f 23/39/6 51/38/6 56/30/6
f 10/79/6 43/98/6 51/38/6
f 43/98/6 15/93/6 80/97/6
f 39/22/6 81/25/6 13/23/6
f 23/39/6 56/30/6 39/22/6
f 56/30/6 26/29/6 81/25/6
f 25/27/6 54/26/6 53/59/6
f 26/29/6 57/90/6 54/26/6
f 85/64/2 69/19/2 117/2/2
f 58/32/6 83/100/6 24/33/6
f 27/36/6 61/40/6 58/32/6
f 61/40/6 23/39/6 83/100/6
f 37/94/4 21/101/4 95/95/4
f 62/76/6 28/45/6 84/103/6
f 84/103/6 65/49/6 38/104/6
f 11/141/3 36/105/3 94/107/3
f 29/54/6 69/58/6 66/67/6
f 36/105/3 20/109/3 93/106/3
f 90/137/6 117/111/6 91/1/6
f 93/136/6 116/113/6 94/115/6
f 115/135/6 100/116/6 108/118/6
f 109/196/6 114/119/6 101/121/6
f 113/132/6 106/122/6 102/124/6
f 112/131/6 107/125/6 98/127/6
f 110/138/6 111/128/6 105/130/6
f 108/118/6 96/117/6 111/128/6
f 94/115/6 97/114/6 98/127/6
f 86/197/6 113/132/6 87/133/6
f 119/134/6 88/198/6 89/140/6
f 89/140/6 92/120/6 119/134/6
f 109/196/6 101/121/6 115/135/6
f 106/122/6 116/113/6 103/123/6
f 99/126/6 107/125/6 90/137/6
f 117/111/6 110/138/6 104/112/6
f 6/185/2 30/139/2 87/140/2
f 44/10/3 11/141/3 98/142/3
f 70/4/2 53/143/2 111/5/2
f 16/11/3 44/10/3 99/144/3
f 121/146/5 31/190/5 8/187/5
f 8/187/5 89/15/5 121/146/5
f 45/13/4 12/147/4 100/148/4
f 17/14/4 45/13/4 101/149/4
f 32/151/3 16/11/3 90/150/3
f 7/187/3 32/151/3 91/15/3
f 33/153/4 17/14/4 92/152/4
f 8/82/4 33/153/4 89/1/4
f 62/41/5 84/72/5 106/42/5
f 48/158/3 6/155/3 102/157/3
f 20/109/3 48/158/3 103/110/3
f 84/72/5 38/143/5 116/154/5
f 49/160/4 7/64/4 104/159/4
f 21/101/4 49/160/4 105/102/4
f 120/50/2 79/60/2 118/161/2
f 118/161/2 31/193/2 121/199/2
f 121/199/2 122/162/2 118/161/2
f 123/200/6 125/163/6 124/165/6
f 47/201/4 77/166/4 125/167/4
f 5/188/5 47/168/5 123/170/5
f 77/65/3 46/171/3 126/163/3
f 132/172/2 130/202/2 131/203/2
f 128/174/2 129/204/2 132/172/2
f 132/172/2 131/203/2 127/173/2
f 119/134/6 114/119/6 127/176/6
f 88/198/6 119/134/6 131/177/6
f 121/146/5 88/145/5 130/170/5
f 114/204/3 120/174/3 128/178/3
f 122/179/1 121/108/1 130/91/1
f 129/2/1 120/205/1 122/179/1
f 130/91/1 132/180/1 122/179/1
