# Blender v2.76 (sub 0) OBJ File: ''
# www.blender.org
mtllib crate.mtl
o Cube.002_Cube.022
v -0.600000 1.000000 -0.599999
v -0.600000 1.000000 0.600001
v -1.000000 1.000000 1.000000
v -1.000000 1.000000 -1.000000
v 0.599999 1.000000 -0.600000
v -0.600001 1.000000 -0.600000
v -1.000000 1.000000 -1.000000
v 1.000000 1.000000 -1.000000
v 0.600000 1.000000 0.599999
v 0.600000 1.000000 -0.600001
v 1.000000 1.000000 -1.000000
v 1.000000 1.000000 1.000000
v -0.599999 1.000000 0.600000
v 0.600001 1.000000 0.600000
v 1.000000 1.000000 1.000000
v -1.000000 1.000000 1.000000
v 0.600000 0.999999 0.600000
v 0.600000 0.899999 0.600000
v -0.600000 0.900000 0.600000
v -0.600000 1.000000 0.600000
v 0.600000 0.900000 -0.599999
v 0.600000 0.900000 0.600001
v -0.600000 0.900000 0.600000
v -0.600000 0.900000 -0.600000
v -0.600000 0.999999 0.600000
v -0.600000 0.899999 0.600000
v -0.600000 0.900000 -0.600000
v -0.600000 1.000000 -0.600000
v -0.600000 0.999999 -0.600000
v -0.600000 0.899999 -0.600000
v 0.600000 0.900000 -0.600000
v 0.600000 1.000000 -0.600000
v 0.600000 0.999999 -0.600000
v 0.600000 0.899999 -0.600000
v 0.600000 0.900000 0.600000
v 0.600000 1.000000 0.600000
v -1.000000 -0.600000 -0.599999
v -1.000000 -0.600000 0.600001
v -1.000000 -1.000000 1.000000
v -1.000000 -1.000000 -1.000000
v -1.000000 0.600000 -0.600000
v -1.000000 -0.600001 -0.600000
v -1.000000 -0.999999 -1.000000
v -1.000000 1.000000 -1.000000
v -1.000000 0.600000 0.599999
v -1.000000 0.600000 -0.600001
v -1.000000 1.000000 -1.000000
v -1.000000 1.000000 1.000000
v -1.000000 -0.599999 0.600000
v -1.000000 0.600001 0.600000
v -1.000000 1.000000 1.000000
v -1.000000 -1.000000 1.000000
v -0.999999 0.600000 0.600000
v -0.900000 0.600000 0.600000
v -0.900001 -0.600000 0.600000
v -1.000000 -0.600000 0.600000
v -0.900000 0.600000 -0.599999
v -0.900000 0.600000 0.600001
v -0.900000 -0.600000 0.600000
v -0.900000 -0.600000 -0.600000
v -1.000000 -0.600000 0.600000
v -0.900000 -0.600000 0.600000
v -0.900001 -0.600000 -0.600000
v -1.000000 -0.600000 -0.600000
v -1.000000 -0.600000 -0.600000
v -0.900000 -0.600000 -0.600000
v -0.900000 0.600000 -0.600000
v -1.000000 0.600000 -0.600000
v -0.999999 0.600000 -0.600000
v -0.900000 0.600000 -0.600000
v -0.900000 0.600000 0.600000
v -1.000000 0.600000 0.600000
v -0.600000 -0.600000 1.000000
v 0.600001 -0.600000 1.000000
v 1.000000 -1.000000 1.000000
v -1.000000 -1.000000 1.000000
v -0.600000 0.600000 1.000000
v -0.600000 -0.600001 1.000000
v -1.000000 -1.000000 1.000000
v -1.000000 1.000000 1.000000
v 0.599999 0.600000 1.000000
v -0.600001 0.600000 1.000000
v -1.000000 1.000000 1.000000
v 1.000000 1.000000 1.000000
v 0.600000 -0.599999 1.000000
v 0.600000 0.600001 1.000000
v 1.000000 1.000000 1.000000
v 1.000000 -1.000000 1.000000
v 0.600000 0.600000 1.000000
v 0.600000 0.600000 0.900000
v 0.600000 -0.600000 0.900001
v 0.600000 -0.600000 1.000000
v -0.600000 0.600000 0.900000
v 0.600001 0.600000 0.900000
v 0.599999 -0.600000 0.900000
v -0.600000 -0.600000 0.900000
v 0.600000 -0.600000 0.999999
v 0.600000 -0.600000 0.900000
v -0.600000 -0.600000 0.900000
v -0.600000 -0.600000 1.000000
v -0.600000 -0.600000 0.999999
v -0.600000 -0.600000 0.899999
v -0.600000 0.600000 0.900000
v -0.600000 0.600000 1.000000
v -0.600000 0.600000 0.999999
v -0.600000 0.600000 0.899999
v 0.600000 0.600000 0.900001
v 0.600000 0.600000 1.000000
v -0.600000 -1.000000 0.600000
v -0.600000 -1.000000 -0.600000
v -1.000000 -1.000000 -0.999999
v -1.000000 -1.000000 1.000000
v 0.599999 -1.000000 0.600000
v -0.600001 -1.000000 0.600000
v -1.000000 -1.000000 1.000000
v 1.000000 -1.000000 1.000000
v 0.600000 -1.000000 -0.599999
v 0.600000 -1.000000 0.600001
v 1.000000 -1.000000 1.000000
v 1.000000 -1.000000 -1.000000
v -0.599999 -1.000000 -0.600000
v 0.600001 -1.000000 -0.600000
v 1.000000 -1.000000 -1.000000
v -1.000000 -1.000000 -1.000000
v 0.600000 -0.999999 -0.600000
v 0.600000 -0.900000 -0.600000
v -0.600000 -0.900001 -0.600000
v -0.600000 -1.000000 -0.600000
v 0.600000 -0.900000 0.600000
v 0.600000 -0.900000 -0.600000
v -0.600000 -0.900000 -0.599999
v -0.600000 -0.900000 0.600000
v -0.600000 -0.999999 -0.600000
v -0.600000 -0.900000 -0.600000
v -0.600000 -0.900000 0.600000
v -0.600000 -1.000000 0.600000
v -0.600000 -0.999999 0.600000
v -0.600000 -0.899999 0.600000
v 0.600000 -0.900000 0.600000
v 0.600000 -1.000000 0.600000
v 0.600000 -0.999999 0.600000
v 0.600000 -0.899999 0.600000
v 0.600000 -0.900001 -0.600000
v 0.600000 -1.000000 -0.600000
v -0.600000 0.600000 -1.000000
v 0.600001 0.600000 -1.000000
v 1.000000 1.000000 -1.000000
v -1.000000 1.000000 -1.000000
v -0.600000 -0.600000 -1.000000
v -0.600000 0.600001 -1.000000
v -1.000000 1.000000 -1.000000
v -1.000000 -1.000000 -1.000000
v 0.599999 -0.600000 -1.000000
v -0.600001 -0.600000 -1.000000
v -1.000000 -1.000000 -1.000000
v 1.000000 -1.000000 -1.000000
v 0.600000 0.599999 -1.000000
v 0.600000 -0.600001 -1.000000
v 1.000000 -1.000000 -1.000000
v 1.000000 1.000000 -1.000000
v 0.600000 -0.600000 -0.999999
v 0.600000 -0.600000 -0.900000
v 0.600000 0.600000 -0.900001
v 0.600000 0.600000 -1.000000
v -0.599999 -0.600000 -0.900000
v 0.600001 -0.600000 -0.900000
v 0.600000 0.600000 -0.900000
v -0.600000 0.600000 -0.900000
v 0.600000 0.600000 -0.999999
v 0.600000 0.600000 -0.900000
v -0.600000 0.600000 -0.900001
v -0.600000 0.600000 -1.000000
v -0.600000 0.600000 -0.999999
v -0.600000 0.600000 -0.899999
v -0.600000 -0.600000 -0.900000
v -0.600000 -0.600000 -1.000000
v -0.600000 -0.600000 -0.999999
v -0.600000 -0.600000 -0.899999
v 0.600000 -0.600000 -0.900000
v 0.600000 -0.600000 -1.000000
v 1.000000 0.600000 -0.599999
v 1.000000 0.600000 0.600001
v 1.000000 1.000000 1.000000
v 1.000000 1.000000 -1.000000
v 1.000000 -0.600000 -0.600000
v 1.000000 0.600001 -0.600000
v 1.000000 1.000000 -1.000000
v 1.000000 -1.000000 -1.000000
v 1.000000 -0.600000 0.599999
v 1.000000 -0.600000 -0.600001
v 1.000000 -1.000000 -1.000000
v 1.000000 -1.000000 1.000000
v 1.000000 0.599999 0.600000
v 1.000000 -0.600001 0.600000
v 1.000000 -1.000000 1.000000
v 1.000000 1.000000 1.000000
v 0.999999 -0.600000 0.600000
v 0.899999 -0.600000 0.600000
v 0.900000 0.600000 0.600000
v 1.000000 0.600000 0.600000
v 0.900000 -0.600000 -0.599999
v 0.900000 -0.600000 0.600001
v 0.900000 0.600000 0.600000
v 0.900000 0.600000 -0.600000
v 0.999999 0.600000 0.600000
v 0.899999 0.600000 0.600000
v 0.900000 0.600000 -0.600000
v 1.000000 0.600000 -0.600000
v 0.999999 0.600000 -0.600000
v 0.899999 0.600000 -0.600000
v 0.900000 -0.600000 -0.600000
v 1.000000 -0.600000 -0.600000
v 0.999999 -0.600000 -0.600000
v 0.899999 -0.600000 -0.600000
v 0.900000 -0.600000 0.600000
v 1.000000 -0.600000 0.600000
vt 2.000000 0.000000
vt 2.000000 1.000000
vt -1.000000 1.000000
vt -1.000000 0.000000
vt 0.000000 -0.000000
vt 1.000000 0.000000
vt 1.000000 1.000000
vt 0.000000 1.000000
vn 0.000000 -1.000000 0.000000
vn -0.000000 0.000000 1.000000
vn 1.000000 -0.000000 0.000000
vn 0.000000 0.000000 -1.000000
vn -1.000000 0.000000 -0.000000
vn 0.000000 1.000000 -0.000000
usemtl Material.086
s off
f 129/1/1 132/2/1 131/3/1
f 130/4/1 129/1/1 131/3/1
usemtl Material.087
f 109/5/1 112/6/1 111/7/1
f 110/8/1 109/5/1 111/7/1
usemtl Material.088
f 113/5/1 116/6/1 115/7/1
f 114/8/1 113/5/1 115/7/1
usemtl Material.089
f 117/5/1 120/6/1 119/7/1
f 118/8/1 117/5/1 119/7/1
usemtl Material.090
f 121/5/1 124/6/1 123/7/1
f 122/8/1 121/5/1 123/7/1
usemtl Material.091
f 126/5/2 127/8/2 128/7/2
f 125/6/2 126/5/2 128/7/2
usemtl Material.092
f 134/5/3 135/8/3 136/7/3
f 133/6/3 134/5/3 136/7/3
usemtl Material.093
f 138/5/4 139/8/4 140/7/4
f 137/6/4 138/5/4 140/7/4
usemtl Material.094
f 142/5/5 143/8/5 144/7/5
f 141/6/5 142/5/5 144/7/5
usemtl Material.009
f 21/1/6 24/2/6 23/3/6
f 22/4/6 21/1/6 23/3/6
usemtl Material
f 1/5/6 4/6/6 3/7/6
f 2/8/6 1/5/6 3/7/6
usemtl Material.004
f 5/5/6 8/6/6 7/7/6
f 6/8/6 5/5/6 7/7/6
usemtl Material.005
f 9/5/6 12/6/6 11/7/6
f 10/8/6 9/5/6 11/7/6
usemtl Material.006
f 13/5/6 16/6/6 15/7/6
f 14/8/6 13/5/6 15/7/6
usemtl Material.007
f 18/5/4 19/8/4 20/7/4
f 17/6/4 18/5/4 20/7/4
usemtl Material.011
f 26/5/3 27/8/3 28/7/3
f 25/6/3 26/5/3 28/7/3
usemtl Material.012
f 30/5/2 31/8/2 32/7/2
f 29/6/2 30/5/2 32/7/2
usemtl Material.013
f 34/5/5 35/8/5 36/7/5
f 33/6/5 34/5/5 36/7/5
usemtl Material.014
f 57/1/5 60/2/5 59/3/5
f 58/4/5 57/1/5 59/3/5
usemtl Material.015
f 37/5/5 40/6/5 39/7/5
f 38/8/5 37/5/5 39/7/5
usemtl Material.016
f 41/5/5 44/6/5 43/7/5
f 42/8/5 41/5/5 43/7/5
usemtl Material.017
f 45/5/5 48/6/5 47/7/5
f 46/8/5 45/5/5 47/7/5
usemtl Material.018
f 49/5/5 52/6/5 51/7/5
f 50/8/5 49/5/5 51/7/5
usemtl Material.019
f 54/5/4 55/8/4 56/7/4
f 53/6/4 54/5/4 56/7/4
usemtl Material.020
f 62/5/6 63/8/6 64/7/6
f 61/6/6 62/5/6 64/7/6
usemtl Material.021
f 65/6/2 66/5/2 67/8/2
f 68/7/2 65/6/2 67/8/2
usemtl Material.022
f 70/5/1 71/8/1 72/7/1
f 69/6/1 70/5/1 72/7/1
usemtl Material.023
f 93/1/2 96/2/2 95/3/2
f 94/4/2 93/1/2 95/3/2
usemtl Material.024
f 73/5/2 76/6/2 75/7/2
f 74/8/2 73/5/2 75/7/2
usemtl Material.025
f 77/5/2 80/6/2 79/7/2
f 78/8/2 77/5/2 79/7/2
usemtl Material.026
f 81/5/2 84/6/2 83/7/2
f 82/8/2 81/5/2 83/7/2
usemtl Material.027
f 85/5/2 88/6/2 87/7/2
f 86/8/2 85/5/2 87/7/2
usemtl Material.028
f 90/5/5 91/8/5 92/7/5
f 89/6/5 90/5/5 92/7/5
usemtl Material.029
f 98/5/6 99/8/6 100/7/6
f 97/6/6 98/5/6 100/7/6
usemtl Material.030
f 102/5/3 103/8/3 104/7/3
f 101/6/3 102/5/3 104/7/3
usemtl Material.031
f 106/5/1 107/8/1 108/7/1
f 105/6/1 106/5/1 108/7/1
usemtl Material.095
f 165/1/4 168/2/4 167/3/4
f 166/4/4 165/1/4 167/3/4
usemtl Material.096
f 145/5/4 148/6/4 147/7/4
f 146/8/4 145/5/4 147/7/4
usemtl Material.097
f 149/5/4 152/6/4 151/7/4
f 150/8/4 149/5/4 151/7/4
usemtl Material.098
f 153/5/4 156/6/4 155/7/4
f 154/8/4 153/5/4 155/7/4
usemtl Material.099
f 157/5/4 160/6/4 159/7/4
f 158/8/4 157/5/4 159/7/4
usemtl Material.100
f 162/5/5 163/8/5 164/7/5
f 161/6/5 162/5/5 164/7/5
usemtl Material.101
f 170/5/1 171/8/1 172/7/1
f 169/6/1 170/5/1 172/7/1
usemtl Material.102
f 174/5/3 175/8/3 176/7/3
f 173/6/3 174/5/3 176/7/3
usemtl Material.103
f 178/5/6 179/8/6 180/7/6
f 177/6/6 178/5/6 180/7/6
usemtl Material.104
f 201/1/3 204/2/3 203/3/3
f 202/4/3 201/1/3 203/3/3
usemtl Material.105
f 181/5/3 184/6/3 183/7/3
f 182/8/3 181/5/3 183/7/3
usemtl Material.106
f 185/5/3 188/6/3 187/7/3
f 186/8/3 185/5/3 187/7/3
usemtl Material.107
f 189/5/3 192/6/3 191/7/3
f 190/8/3 189/5/3 191/7/3
usemtl Material.108
f 193/5/3 196/6/3 195/7/3
f 194/8/3 193/5/3 195/7/3
usemtl Material.109
f 198/5/4 199/8/4 200/7/4
f 197/6/4 198/5/4 200/7/4
usemtl Material.110
f 206/5/1 207/8/1 208/7/1
f 205/6/1 206/5/1 208/7/1
usemtl Material.111
f 210/5/2 211/8/2 212/7/2
f 209/6/2 210/5/2 212/7/2
usemtl Material.112
f 214/5/6 215/8/6 216/7/6
f 213/6/6 214/5/6 216/7/6
